<?xml version="1.0" encoding="utf-8"?>
<!-- Generator: Adobe Illustrator 21.0.0, SVG Export Plug-In . SVG Version: 6.00 Build 0)  -->
<svg version="1.1" id="Layer_1" xmlns="http://www.w3.org/2000/svg" xmlns:xlink="http://www.w3.org/1999/xlink" x="0px" y="0px"
	 viewBox="0 0 306.2 146" style="enable-background:new 0 0 306.2 146;" xml:space="preserve">
<style type="text/css">
	.st0{clip-path:url(#SVGID_2_);fill:#231F20;}
	.st1{clip-path:url(#SVGID_4_);fill:url(#SVGID_5_);}
	.st2{clip-path:url(#SVGID_7_);fill:url(#SVGID_8_);}
	.st3{clip-path:url(#SVGID_10_);fill:url(#SVGID_11_);}
	.st4{clip-path:url(#SVGID_13_);fill:#231F20;}
</style>
<title>ACT LOGO</title>
<g>
	<defs>
		<rect id="SVGID_1_" x="-29.7" y="-32.3" width="401.7" height="210.6"/>
	</defs>
	<clipPath id="SVGID_2_">
		<use xlink:href="#SVGID_1_"  style="overflow:visible;"/>
	</clipPath>
	<path class="st0" d="M286.7,15.4h-68c3.3,2.8,5,6.1,6.5,10.1c-0.1-0.1-0.2-0.2-0.3-0.3c-0.1-0.3-0.2-0.5-0.3-0.8
		C219,19.3,213,16.5,204,15c-3.3-0.3-7-0.5-11.1-0.5c-20.7,0-35.1,2.6-43,7.7c-8,5.2-14,15.9-17.9,31.9c-0.9,3.5-1.6,6.9-2.3,10.1
		c-0.8,3.6-1.4,6.9-2,10L121.5,26c-0.8-6.1-5.9-10.6-12-10.6H89c-0.6,0-1.2,0.3-1.6,0.9l-57.8,94.6c-0.3,0.6-0.4,1.3,0,1.9
		c0.3,0.6,0.9,0.9,1.6,0.9H52c0.6,0,1.2-0.3,1.6-0.9l17.7-28.9l28.1-47.2l8.8,75.4c0.1,0.9,0.9,1.6,1.8,1.6h20.5
		c0.5,0,1-0.2,1.4-0.6c0.3-0.4,0.5-0.9,0.4-1.4c0,0-0.9-7.2-1.2-10.1c1.6,4.7,5.2,9.4,13,11.6c2.5,0.4,5.3,0.8,8.3,1
		c3.6,0.3,7.6,0.4,12,0.4c18.6,0,30.8-2,37.3-6c6.7-4.2,11.6-12.9,15.1-26.8l0.7-3.2c0.1-0.5,0-1.1-0.4-1.6
		c-0.4-0.4-0.9-0.7-1.4-0.7h-19.8c-0.9,0-1.6,0.6-1.8,1.5l-0.9,4.2c-1.4,5.7-3.5,9.4-6.4,11c-3.2,1.7-9.5,2.6-18.9,2.6
		c-15.3,0-18.2-2.7-18.7-3.8c-0.4-1-0.8-4.5,1.4-15.8c0-0.2,0.1-0.4,0.1-0.7c0.1-0.4,0.2-0.9,0.3-1.3c0,0,0-0.1,0-0.1
		c0.3-1.7,0.9-4.5,2.1-9.5h0c0.3-1.2,0.6-2.3,0.9-3.6c4.1-16.1,7.1-21.6,9-23.3c2.8-2.4,10.2-3.6,22-3.6c11.7,0,14.8,1.5,15.6,2.2
		c1.6,1.2,1.7,4.7,0.4,10l-0.6,2.4c-0.1,0.6,0,1.1,0.3,1.6c0.3,0.5,0.9,0.7,1.5,0.7h19.9c0.9,0,1.6-0.6,1.8-1.4l0.5-2.1
		c1.1-4.5,1.6-8.4,1.8-11.8h13.3l-18.7,76.3c-0.1,0.5,0,1.1,0.3,1.6c0.3,0.4,0.9,0.7,1.4,0.7h19.7c0.8,0,1.6-0.6,1.8-1.4l18.9-77.1
		h29.7c0.8,0,1.6-0.6,1.8-1.4l1.6-6.4C297.6,21.2,293,15.4,286.7,15.4"/>
</g>
<g>
	<defs>
		<path id="SVGID_3_" d="M140,85.6C140,85.6,140,85.5,140,85.6c0,0-0.1-0.1-0.1-0.1C140,85.5,140,85.5,140,85.6"/>
	</defs>
	<clipPath id="SVGID_4_">
		<use xlink:href="#SVGID_3_"  style="overflow:visible;"/>
	</clipPath>
	
		<linearGradient id="SVGID_5_" gradientUnits="userSpaceOnUse" x1="-412.1029" y1="371.1668" x2="-411.749" y2="371.1668" gradientTransform="matrix(245.5702 70.2016 70.2016 -245.5702 75196.8438 120138.5078)">
		<stop  offset="0" style="stop-color:#8BC53F"/>
		<stop  offset="1" style="stop-color:#8BC53F"/>
	</linearGradient>
	<polygon class="st1" points="139.9,85.5 140.1,85.5 140,85.6 139.9,85.6 	"/>
</g>
<g>
	<defs>
		<path id="SVGID_6_" d="M51.4,75.3l-4.4,7.1c10.8-7.8,26.2-12.4,43.9-12c18.6,0.4,36.1,6.1,49.1,15.1c0,0,0.1,0,0.1,0
			c-11.2-17.8-29.3-27.9-46.5-27.9C75.5,57.6,61.8,63.2,51.4,75.3"/>
	</defs>
	<clipPath id="SVGID_7_">
		<use xlink:href="#SVGID_6_"  style="overflow:visible;"/>
	</clipPath>
	
		<linearGradient id="SVGID_8_" gradientUnits="userSpaceOnUse" x1="-412.0749" y1="370.9916" x2="-411.7211" y2="370.9916" gradientTransform="matrix(263.0476 0 0 -263.0476 108442.2813 97660.0469)">
		<stop  offset="0" style="stop-color:#F6921E"/>
		<stop  offset="0.6171" style="stop-color:#F9A737"/>
		<stop  offset="1" style="stop-color:#FAAF40"/>
	</linearGradient>
	<rect x="46.9" y="57.6" class="st2" width="93.1" height="27.9"/>
</g>
<g>
	<defs>
		<path id="SVGID_9_" d="M51.4,75.3L36.5,99.6c18.6-12.7,41.9-19.9,66.7-20.1c13.3-0.1,25.7,2,36.8,5.9c-13.6-9-31.2-17.4-50.6-17.7
			c-0.8,0-1.6,0-2.4,0C72.9,67.7,61.4,70.2,51.4,75.3"/>
	</defs>
	<clipPath id="SVGID_10_">
		<use xlink:href="#SVGID_9_"  style="overflow:visible;"/>
	</clipPath>
	
		<linearGradient id="SVGID_11_" gradientUnits="userSpaceOnUse" x1="-412.1023" y1="371.0681" x2="-411.7484" y2="371.0681" gradientTransform="matrix(292.334 0 0 -292.334 120508.0156 108559.5078)">
		<stop  offset="0" style="stop-color:#8BC53F"/>
		<stop  offset="2.604170e-03" style="stop-color:#8BC53F"/>
		<stop  offset="0.3265" style="stop-color:#88C43F"/>
		<stop  offset="0.5204" style="stop-color:#80C340"/>
		<stop  offset="0.6801" style="stop-color:#72C042"/>
		<stop  offset="0.8212" style="stop-color:#5EBB45"/>
		<stop  offset="0.9489" style="stop-color:#44B648"/>
		<stop  offset="1" style="stop-color:#37B34A"/>
	</linearGradient>
	<rect x="36.5" y="67.7" class="st3" width="103.4" height="31.9"/>
</g>
<g>
	<defs>
		<rect id="SVGID_12_" x="-29.7" y="-32.3" width="401.7" height="210.6"/>
	</defs>
	<clipPath id="SVGID_13_">
		<use xlink:href="#SVGID_12_"  style="overflow:visible;"/>
	</clipPath>
	<path class="st4" d="M219.2,120.8c0.3-0.1,0.5-0.4,0.7-0.6c0.2-0.3,0.3-0.6,0.4-0.9c0.1-0.3,0-0.7-0.1-0.9
		c-0.1-0.3-0.3-0.5-0.5-0.6s-0.5-0.2-0.8-0.2s-0.6,0.1-0.9,0.2c-0.3,0.1-0.5,0.4-0.7,0.6c-0.2,0.3-0.3,0.6-0.4,0.9
		c-0.1,0.3,0,0.7,0.1,0.9c0.1,0.3,0.3,0.5,0.5,0.6c0.2,0.1,0.5,0.2,0.8,0.2C218.6,121,218.9,120.9,219.2,120.8"/>
	<path class="st4" d="M29,135.7c-0.9-0.6-1.6-1.3-2-2.3c-0.4-1-0.5-2.1-0.3-3.4c0.2-1.3,0.7-2.4,1.4-3.4c0.7-1,1.7-1.8,2.8-2.3
		c1.1-0.6,2.3-0.8,3.6-0.8c1.2,0,2.2,0.2,3,0.7c0.8,0.5,1.4,1.1,1.8,2l-1.9,1.1c-0.3-0.6-0.7-1.1-1.3-1.4c-0.5-0.3-1.2-0.5-1.9-0.5
		c-0.8,0-1.6,0.2-2.3,0.6c-0.7,0.4-1.3,0.9-1.8,1.6c-0.5,0.7-0.8,1.5-0.9,2.4c-0.1,0.9-0.1,1.7,0.2,2.4c0.3,0.7,0.7,1.2,1.3,1.6
		c0.6,0.4,1.3,0.6,2.2,0.6c0.7,0,1.4-0.2,2-0.5c0.6-0.3,1.2-0.8,1.7-1.4l1.6,1.1c-0.6,0.9-1.5,1.6-2.4,2c-1,0.5-2.1,0.7-3.2,0.7
		C31.1,136.6,30,136.3,29,135.7"/>
	<path class="st4" d="M51.2,124.8c0.8,0.9,1.1,2.2,0.8,3.9l-1.2,7.7h-2.2l0.3-1.7c-0.5,0.6-1.1,1-1.9,1.4c-0.8,0.3-1.6,0.5-2.6,0.5
		c-1.4,0-2.5-0.3-3.3-1c-0.7-0.7-1-1.6-0.9-2.7c0.2-1.1,0.7-2,1.7-2.7c0.9-0.7,2.3-1,4.1-1h3.7l0.1-0.5c0.2-1,0-1.8-0.5-2.3
		c-0.5-0.5-1.3-0.8-2.4-0.8c-0.8,0-1.5,0.1-2.3,0.4c-0.8,0.2-1.4,0.6-2,1l-0.7-1.7c0.7-0.5,1.6-0.9,2.6-1.2c1-0.3,2-0.4,3-0.4
		C49.1,123.5,50.4,124,51.2,124.8 M47.4,134.2c0.7-0.4,1.3-1,1.7-1.7l0.3-1.8h-3.6c-2,0-3,0.7-3.3,2c-0.1,0.6,0.1,1.1,0.5,1.5
		c0.4,0.4,1.1,0.6,2,0.6S46.7,134.6,47.4,134.2"/>
	<path class="st4" d="M61,124.1c0.8-0.4,1.8-0.6,3-0.6l-0.4,2.2c-0.1,0-0.3,0-0.5,0c-1.3,0-2.3,0.4-3.1,1.1
		c-0.8,0.7-1.4,1.8-1.6,3.2l-1,6.4H55l2.1-12.8h2.2l-0.3,2.1C59.5,125.1,60.1,124.5,61,124.1"/>
	<path class="st4" d="M77,130.8H66.6c0,1.1,0.3,2,1,2.7c0.7,0.7,1.7,1,3,1c1.5,0,2.8-0.5,3.9-1.5l1,1.5c-0.7,0.7-1.5,1.2-2.4,1.5
		c-0.9,0.4-1.9,0.5-3,0.5c-1.4,0-2.5-0.3-3.5-0.8c-1-0.6-1.6-1.3-2-2.3c-0.4-1-0.5-2.1-0.3-3.4c0.2-1.2,0.7-2.4,1.4-3.4
		c0.7-1,1.6-1.8,2.7-2.3c1.1-0.6,2.2-0.8,3.4-0.8c1.2,0,2.3,0.3,3.1,0.8c0.9,0.6,1.5,1.3,1.9,2.3c0.4,1,0.5,2.1,0.3,3.4
		C77.1,130.3,77.1,130.5,77,130.8 M68.7,126.5c-0.9,0.7-1.4,1.6-1.7,2.7h8.2c0-1.1-0.3-2-0.9-2.6c-0.6-0.7-1.5-1-2.6-1
		S69.5,125.8,68.7,126.5"/>
	<path class="st4" d="M90.7,122.5l-0.2,1.1h3.7l-0.3,1.9h-3.7l-1.7,10.9h-2.3l1.7-10.9h-2.2l0.3-1.9h2.2l0.2-1.1
		c0.2-1.3,0.7-2.3,1.6-3c0.9-0.7,2-1.1,3.3-1.1c0.5,0,1,0.1,1.4,0.2c0.4,0.1,0.8,0.3,1.1,0.6l-1,1.8c-0.5-0.4-1-0.6-1.7-0.6
		C91.7,120.3,90.9,121,90.7,122.5"/>
	<path class="st4" d="M96.3,135.7c-0.9-0.6-1.6-1.3-2-2.3c-0.4-1-0.5-2.1-0.3-3.4c0.2-1.3,0.7-2.4,1.4-3.4c0.7-1,1.6-1.8,2.7-2.3
		c1.1-0.6,2.3-0.8,3.6-0.8c1.3,0,2.4,0.3,3.3,0.8c0.9,0.6,1.6,1.3,2,2.3c0.4,1,0.5,2.1,0.3,3.4c-0.2,1.3-0.7,2.4-1.4,3.4
		c-0.7,1-1.6,1.8-2.7,2.3c-1.1,0.6-2.3,0.8-3.5,0.8C98.3,136.6,97.3,136.3,96.3,135.7 M102.2,134c0.7-0.4,1.3-0.9,1.8-1.6
		c0.5-0.7,0.8-1.5,0.9-2.4c0.1-0.9,0.1-1.7-0.2-2.3c-0.3-0.7-0.7-1.2-1.3-1.6c-0.6-0.4-1.3-0.6-2.1-0.6c-0.8,0-1.6,0.2-2.3,0.6
		c-0.7,0.4-1.3,0.9-1.8,1.6c-0.5,0.7-0.8,1.5-0.9,2.3c-0.1,0.9-0.1,1.7,0.2,2.4c0.3,0.7,0.7,1.2,1.3,1.6c0.6,0.4,1.3,0.6,2.1,0.6
		C100.8,134.5,101.5,134.4,102.2,134"/>
	<path class="st4" d="M115.5,124.1c0.8-0.4,1.8-0.6,3-0.6l-0.4,2.2c-0.1,0-0.3,0-0.5,0c-1.3,0-2.3,0.4-3.1,1.1
		c-0.8,0.7-1.4,1.8-1.6,3.2l-1,6.4h-2.3l2.1-12.8h2.2l-0.3,2.1C113.9,125.1,114.6,124.5,115.5,124.1"/>
	<path class="st4" d="M138.4,124.9c0.8,0.9,1.1,2.3,0.8,4.1l-1.2,7.4h-2.3l1.1-7.1c0.2-1.2,0.1-2.2-0.4-2.8
		c-0.5-0.6-1.3-0.9-2.4-0.9c-1.3,0-2.3,0.4-3.1,1.1c-0.8,0.7-1.4,1.8-1.6,3.1l-1.1,6.6h-2.3l2.9-17.9h2.3l-1.1,6.9
		c0.6-0.6,1.3-1.1,2.1-1.4c0.8-0.3,1.7-0.5,2.7-0.5C136.4,123.5,137.6,124,138.4,124.9"/>
	<path class="st4" d="M156.2,123.6l-2.1,12.8H152l0.3-1.9c-0.6,0.7-1.3,1.2-2.1,1.5c-0.8,0.4-1.7,0.5-2.6,0.5c-1.7,0-3-0.5-3.8-1.4
		c-0.8-0.9-1.1-2.3-0.8-4.2l1.2-7.4h2.3l-1.1,7.1c-0.2,1.2-0.1,2.2,0.4,2.8c0.5,0.6,1.3,1,2.4,1c1.2,0,2.2-0.4,3.1-1.1
		c0.8-0.7,1.3-1.8,1.6-3.1l1.1-6.6H156.2z"/>
	<path class="st4" d="M180.2,124.9c0.8,0.9,1,2.3,0.7,4.1l-1.2,7.4h-2.3l1.1-7.1c0.2-1.2,0.1-2.2-0.4-2.8c-0.5-0.6-1.2-0.9-2.3-0.9
		c-1.2,0-2.2,0.4-3,1.1c-0.8,0.7-1.3,1.8-1.5,3.1l-1.1,6.6H168l1.1-7.1c0.2-1.2,0.1-2.2-0.4-2.8c-0.5-0.6-1.2-0.9-2.3-0.9
		c-1.2,0-2.2,0.4-3,1.1c-0.8,0.7-1.3,1.8-1.5,3.1l-1.1,6.6h-2.3l2.1-12.8h2.2l-0.3,1.9c0.6-0.7,1.3-1.2,2.1-1.5
		c0.8-0.3,1.7-0.5,2.7-0.5c1,0,1.8,0.2,2.6,0.6c0.7,0.4,1.2,1,1.5,1.8c0.6-0.7,1.4-1.3,2.3-1.7c0.9-0.4,1.9-0.6,3-0.6
		C178.3,123.5,179.5,124,180.2,124.9"/>
	<path class="st4" d="M194.7,124.8c0.8,0.9,1.1,2.2,0.8,3.9l-1.2,7.7H192l0.3-1.7c-0.5,0.6-1.1,1-1.9,1.4c-0.8,0.3-1.6,0.5-2.6,0.5
		c-1.4,0-2.5-0.3-3.3-1c-0.7-0.7-1-1.6-0.9-2.7c0.2-1.1,0.7-2,1.7-2.7c0.9-0.7,2.3-1,4.1-1h3.7l0.1-0.5c0.2-1,0-1.8-0.5-2.3
		c-0.5-0.5-1.3-0.8-2.4-0.8c-0.8,0-1.5,0.1-2.3,0.4c-0.8,0.2-1.4,0.6-2,1l-0.7-1.7c0.7-0.5,1.6-0.9,2.6-1.2c1-0.3,2-0.4,3-0.4
		C192.6,123.5,193.9,124,194.7,124.8 M190.8,134.2c0.7-0.4,1.3-1,1.7-1.7l0.3-1.8h-3.6c-2,0-3,0.7-3.3,2c-0.1,0.6,0.1,1.1,0.5,1.5
		c0.4,0.4,1.1,0.6,2,0.6C189.3,134.8,190.1,134.6,190.8,134.2"/>
	<path class="st4" d="M211,124.9c0.8,0.9,1.1,2.3,0.8,4.1l-1.2,7.4h-2.3l1.1-7.1c0.2-1.2,0.1-2.2-0.4-2.8c-0.5-0.6-1.3-0.9-2.4-0.9
		c-1.3,0-2.3,0.4-3.1,1.1c-0.8,0.7-1.4,1.8-1.6,3.1l-1.1,6.6h-2.3l2.1-12.8h2.2l-0.3,1.9c0.6-0.7,1.3-1.2,2.1-1.5
		c0.9-0.4,1.8-0.5,2.8-0.5C209,123.5,210.2,124,211,124.9"/>
	<polygon class="st4" points="217,123.6 219.3,123.6 217.2,136.4 214.9,136.4 	"/>
	<path class="st4" d="M228.9,135.7c-0.4,0.3-0.8,0.5-1.4,0.7c-0.5,0.2-1.1,0.2-1.6,0.2c-1.3,0-2.2-0.3-2.8-1c-0.6-0.7-0.8-1.7-0.6-3
		l1.1-7h-2.2l0.3-1.9h2.2l0.4-2.8h2.3l-0.4,2.8h3.7l-0.3,1.9H226l-1.1,6.9c-0.1,0.7,0,1.2,0.3,1.6c0.3,0.4,0.8,0.6,1.4,0.6
		c0.7,0,1.3-0.2,1.9-0.6L228.9,135.7z"/>
	<path class="st4" d="M244.7,123.6l-8.5,14.1c-0.8,1.3-1.5,2.2-2.4,2.7c-0.8,0.5-1.7,0.8-2.8,0.8c-0.6,0-1.2-0.1-1.8-0.3
		c-0.6-0.2-1-0.5-1.3-0.9l1.3-1.7c0.6,0.6,1.3,0.9,2.1,0.9c0.6,0,1.1-0.1,1.5-0.4c0.4-0.3,0.8-0.8,1.3-1.5l0.6-0.9l-3.6-12.8h2.4
		l2.8,10.2l6.1-10.2H244.7z"/>
</g>
</svg>
